<svg fill="none" height="24" viewBox="0 0 24 24" width="24" xmlns="http://www.w3.org/2000/svg"><path d="m13.1218 14.8446 4.8786 7.1553m-7.1214-7.1553-4.87859 7.1553m7.99999-8.7999c0 1.1045-.8954 2-2 2s-2-.8955-2-2c0-1.1046.8954-2 2-2s2 .8954 2 2zm3.1485-8.66775-11.78428 3.15759c-.27048.07248-.40573.10871-.49493.18904-.07847.07065-.13256.16433-.15451.26761-.02496.11742.01128.25266.08375.52315l.87999 3.28416c.07248.2705.10871.4057.18904.4949.07065.0785.16433.1326.26761.1545.11742.025.25266-.0113.52314-.0837l11.78429-3.15762zm4.6439 4.96733c-1.0819.28991-1.6229.43486-2.0926.33503-.4131-.08782-.7878-.30416-1.0704-.61804-.3213-.35682-.4663-.89779-.7562-1.97973l-.1553-.57956c-.2899-1.08193-.4348-1.6229-.335-2.09257.0878-.41313.3042-.78785.618-1.07046.3569-.32129.8978-.46624 1.9798-.75615.2704-.07248.4057-.10871.5231-.08376.1033.02196.197.07604.2676.15451.0803.08921.1166.22445.1891.49494l1.3976 5.216c.0725.27048.1087.40572.0837.52314-.0219.10328-.076.19696-.1545.26762-.0892.08032-.2244.11656-.4949.18903zm-18.29068 2.83042 1.35229-.3623c.27049-.0725.40573-.1088.49494-.1891.07847-.0706.13255-.1643.15451-.2676.02495-.1174-.01128-.2527-.08376-.5231l-.36235-1.35234c-.07247-.27048-.10871-.40573-.18903-.49493-.07066-.07847-.16434-.13256-.26762-.15451-.11742-.02496-.25266.01128-.52314.08376l-1.3523.36234c-.27048.07248-.40573.10872-.49493.18904-.07847.07065-.13256.16433-.15451.26762-.02496.11742.01128.25262.08376.52312l.36234 1.3523c.07248.2705.10872.4057.18904.4949.07065.0785.16433.1326.26762.1546.11741.0249.25265-.0113.52314-.0838z" stroke="#000" stroke-linecap="round" stroke-linejoin="round" stroke-width="2"/></svg>