<?xml version="1.0" encoding="iso-8859-1"?>
<!-- Uploaded to: SVG Repo, www.svgrepo.com, Generator: SVG Repo Mixer Tools -->
<svg fill="#000000" height="800px" width="800px" version="1.1" id="Layer_1" xmlns="http://www.w3.org/2000/svg" xmlns:xlink="http://www.w3.org/1999/xlink" 
	 viewBox="0 0 512 512" xml:space="preserve">
<g>
	<g>
		<path d="M490.101,158.575c19.891-19.784,27.139-49.717,17.976-76.608c-9.163-26.891-33.18-46.171-61.011-49.694l-3.601-10.57
			c-1.74-5.106-7.286-7.837-12.397-6.096l-68.456,23.324c-2.453,0.836-4.473,2.61-5.616,4.937c-1.142,2.325-1.316,5.009-0.481,7.462
			l4.591,13.477L47.386,171.704c-5.106,1.74-7.836,7.29-6.097,12.397l4.354,12.781L6.62,210.179
			c-5.107,1.74-7.836,7.29-6.096,12.397L20.26,280.5c1.385,4.063,5.18,6.621,9.246,6.621c1.045,0,2.107-0.169,3.151-0.525
			l39.019-13.295l4.356,12.784c0.836,2.453,2.612,4.473,4.937,5.616c1.355,0.667,2.83,1.003,4.311,1.003
			c1.062,0,2.127-0.173,3.151-0.522l107.819-36.738c2.599,5.203,5.788,10.059,9.491,14.475l-50.066,171.214h-11.143
			c-5.395,0-9.769,4.374-9.769,9.769v36.249c0,5.395,4.374,9.769,9.769,9.769h89.754c5.395,0,9.769-4.374,9.769-9.769v-36.249
			c0-5.395-4.374-9.769-9.769-9.769h-2.282l26.58-83.771l26.58,83.771h-2.282c-5.395,0-9.769,4.374-9.769,9.769v36.249
			c0,5.395,4.374,9.769,9.769,9.769h89.754c5.395,0,9.769-4.374,9.769-9.769v-36.249c0-5.395-4.374-9.769-9.769-9.769h-11.155
			l-48.565-165.168c14.094-13.425,22.906-32.349,22.906-53.304c0-4.893-0.491-9.672-1.405-14.301l67.739-23.079l4.595,13.487
			c0.836,2.453,2.61,4.473,4.936,5.616c1.355,0.666,2.83,1.003,4.311,1.003c1.062,0,2.127-0.173,3.151-0.522l68.456-23.325
			c5.107-1.74,7.836-7.29,6.096-12.397L490.101,158.575z M35.603,264.953l-13.434-39.431l29.773-10.145l13.435,39.431
			L35.603,264.953z M154.3,477.383v-16.711h8.695h55.659h5.861v16.711H154.3z M211.506,441.134H176.03l45.867-156.855
			c5.834,3.827,12.237,6.85,19.058,8.905l7.497,31.505L211.506,441.134z M362.866,460.672v16.711H292.65v-16.711h5.861h55.659
			H362.866z M341.117,441.135h-35.455l-37.658-118.683l-6.222-26.149c0.132,0,0.26,0.01,0.392,0.01
			c12.228,0,23.759-3.013,33.919-8.307L341.117,441.135z M262.173,276.776c-29.838,0-54.113-24.275-54.113-54.112
			s24.275-54.113,54.113-54.113s54.113,24.275,54.113,54.113S292.011,276.776,262.173,276.776z M328.095,189.877
			c-12.085-24.198-37.088-40.863-65.922-40.863c-40.611,0-73.65,33.039-73.65,73.65c0,4.891,0.49,9.668,1.404,14.295l-98.553,33.58
			l-28.441-83.492L367.406,83.295l28.448,83.493L328.095,189.877z M422.095,183.222l-4.557-13.377
			c-0.012-0.038-0.02-0.076-0.033-0.113l-30.051-88.181l-9.295-27.28l49.963-17.022l43.936,128.949L422.095,183.222z
			 M482.759,137.025l-28.35-83.205c16.21,5.211,29.525,17.865,35.175,34.447C495.234,104.849,492.414,123.001,482.759,137.025z"/>
	</g>
</g>
<g>
	<g>
		<path d="M262.173,183.416c-21.641,0-39.247,17.606-39.247,39.247s17.606,39.247,39.247,39.247s39.247-17.606,39.247-39.247
			S283.814,183.416,262.173,183.416z M262.173,242.373c-10.868,0-19.709-8.841-19.709-19.709s8.841-19.71,19.709-19.71
			s19.709,8.841,19.709,19.71S273.041,242.373,262.173,242.373z"/>
	</g>
</g>
</svg>