<?xml version="1.0" encoding="UTF-8" standalone="no"?>
<!-- Creator: CorelDRAW X7 -->

<svg
   xmlns:dc="http://purl.org/dc/elements/1.1/"
   xmlns:cc="http://creativecommons.org/ns#"
   xmlns:rdf="http://www.w3.org/1999/02/22-rdf-syntax-ns#"
   xmlns:svg="http://www.w3.org/2000/svg"
   xmlns="http://www.w3.org/2000/svg"
   xmlns:sodipodi="http://sodipodi.sourceforge.net/DTD/sodipodi-0.dtd"
   xmlns:inkscape="http://www.inkscape.org/namespaces/inkscape"
   xml:space="preserve"
   width="715"
   height="225"
   version="1.1"
   style="clip-rule:evenodd;fill-rule:evenodd;image-rendering:optimizeQuality;shape-rendering:geometricPrecision;text-rendering:geometricPrecision"
   viewBox="0 0 20178.888 6350.0025"
   id="svg2"
   inkscape:version="0.92.1 r"
   sodipodi:docname="escudo_2016.svg"><metadata
     id="metadata29"><rdf:RDF><cc:Work
         rdf:about=""><dc:format>image/svg+xml</dc:format><dc:type
           rdf:resource="http://purl.org/dc/dcmitype/StillImage" /><dc:title></dc:title></cc:Work></rdf:RDF></metadata><sodipodi:namedview
     pagecolor="#ffffff"
     bordercolor="#666666"
     borderopacity="1"
     objecttolerance="10"
     gridtolerance="10"
     guidetolerance="10"
     inkscape:pageopacity="0"
     inkscape:pageshadow="2"
     inkscape:window-width="640"
     inkscape:window-height="480"
     id="namedview27"
     showgrid="false"
     fit-margin-top="0"
     fit-margin-left="0"
     fit-margin-right="0"
     fit-margin-bottom="0"
     inkscape:zoom="1.372549"
     inkscape:cx="309.5502"
     inkscape:cy="176.06186"
     inkscape:window-x="137"
     inkscape:window-y="541"
     inkscape:window-maximized="0"
     inkscape:current-layer="svg2"
     units="mm"
     viewbox-height="10553.52" /><defs
     id="defs4"><style
       type="text/css"
       id="style6"><![CDATA[
    .fil0 {fill:#B7311A}
    .fil1 {fill:black;fill-rule:nonzero}
   ]]></style></defs><g
     style="clip-rule:evenodd;fill-rule:evenodd;image-rendering:optimizeQuality;shape-rendering:geometricPrecision;text-rendering:geometricPrecision"
     id="g4135"
     transform="matrix(1.7029463,0,0,1.7029463,964.59333,801.51258)"><path
       class="fil0"
       d="m 9971.5479,556.84712 h 167.0001 l 397,605.99998 V 556.84712 h 175 v 921.99998 h -168 l -396,-604.99998 v 604.99998 h -175.0001 z m -509,-318 h 202 l -229,246 h -123 z m -36,467 c -85,0 -156,29 -214,89 -58,59 -87,134 -87,225.99998 0,102 36,182 109,242 57,46 122,69 195,69 83,0 154,-30 212,-90 58,-60 88,-134 88,-222 0,-87.99998 -30,-161.99998 -89,-222.99998 -58,-61 -130,-91 -214,-91 z m 3,-172 c 130,0 242,47 336,141 94,95 141,210 141,344.99998 0,135 -46,249 -139,342 -93,93 -205,140 -337,140 -139,0 -253,-48 -345,-144 -91,-95 -137,-209 -137,-341 0,-87.99998 21,-168.99998 64,-242.99998 42,-74 101,-132 175,-176 75,-43 156,-64 242,-64 z m -705,23 h 175 v 921.99998 h -175 z m -38,161 -123,117 c -84,-88 -178,-132 -282,-132 -89,0 -163,30 -224,90 -60,61 -90,135 -90,222.99998 0,61 13,116 40,163 27,48 65,85 113,113 49,27 104,40 164,40 51,0 97,-9 139,-28 43,-19 89,-54 140,-104 l 119,125 c -68,66 -132,112 -193,138 -61,26 -130,39 -208,39 -143,0 -261,-46 -352,-137 -91,-90 -137,-207 -137,-349 0,-91.99998 21,-172.99998 63,-244.99998 41,-71 101,-129 178,-172 78,-44 161,-65 251,-65 76,0 149,16 220,48 70,32 131,77 182,136 z m -1324,84 -125,316.99998 h 249 z m -89,-245 h 177 l 355,921.99998 h -183 l -72,-190 h -378 l -74,190 h -182 z m -809,0 h 510 v 173 h -168 v 748.99998 h -179 V 729.84712 h -163 z m -636,0 h 176 v 595.99998 c 0,52 5,88 14,109 9,21 23,38 44,51 21,13 46,19 75,19 31,0 58,-7 80,-21 23,-14 38,-32 47,-54 8,-22 12,-64 12,-126 V 556.84712 h 176 v 548.99998 c 0,93 -5,157 -15,193 -11,36 -31,71 -60,104 -29,34 -63,59 -102,75 -38,16 -83,24 -134,24 -67,0 -125,-16 -174,-46 -50,-31 -85,-69 -107,-116 -21,-46 -32,-124 -32,-234 z m -436,361 h 56 c 44,0 75,-4 92,-10 17,-6 31,-17 41,-31 10,-15 15,-32 15,-53 0,-36 -14,-62 -42,-78 -20,-12 -58,-19 -113,-19 h -49 z m -175,-361 h 186 c 101,0 174,9 218,27 45,19 80,49 106,91 25,41 38,91 38,149 0,65 -17,118 -51,161 -33,42.99998 -79,71.99998 -137,88.99998 -34,10 -96,14 -185,14 v 391 h -175 z m -268,0 h 174 v 921.99998 h -174 z m -608,169 v 581.99998 h 81 c 80,0 138,-9 174,-28 37,-18 66,-49 89,-93 23,-43 35,-97 35,-160 0,-97.99998 -28,-173.99998 -82,-227.99998 -50,-49 -129,-73 -238,-73 z m -175,-169 h 208 c 134,0 233,16 299,50 65,33 118,87 161,162 42,74 63,162 63,261.99998 0,71 -12,136 -36,195 -23,60 -56,109 -97,149 -42,39 -87,66 -135,81 -49,15 -132,23 -252,23 h -211 z M 10150.548,1590.8471 h 566 l -334,762 h 312 v 172 h -571 l 331,-759 h -304 z m -502.0001,151 c -86,0 -158,30 -217,90 -58,60 -88,136 -88,229 0,103 37,185 111,245 58,47 123,71 198,71 84,0 155,-31 214,-92 59,-61 89,-136 89,-225 0,-89 -30,-164 -90,-226 -59,-62 -131,-92 -217,-92 z m 3,-175 c 132,0 246,48 341,144 95.0001,96 142.0001,212 142.0001,350 0,136 -46,251 -140.0001,346 -94,94 -208,141 -342,141 -140,0 -256,-48 -349,-145 -93,-97 -139,-212 -139,-346 0,-89 21,-171 65,-246 43,-75 102,-134 178,-178 75,-44 157,-66 244,-66 z m -729,24 h 178 v 620 c 0,98 -8,167 -24,207 -15,40 -41,72 -77,95 -36,24 -79,35 -129,35 -102,0 -190,-45 -262,-135 l 128,-120 c 28,32 52,54 72,65 20,11 39,16 57,16 19,0 33,-8 43,-24 9,-16 14,-51 14,-106 z m -715,248 -127,322 h 253 z m -90,-248 h 179 l 360,934 h -185 l -73,-193 h -383 l -75,193 h -185 z m -914,172 v 589 h 82 c 81,0 140,-9 177,-28 36,-19 66,-50 89,-94 24,-44 35,-98 35,-163 0,-99 -27,-176 -83,-231 -50,-49 -130,-73 -240,-73 z m -177,-172 h 210 c 136,0 237,17 303,50 66,34 120,89 163,164 43,76 64,165 64,266 0,72 -12,138 -36,198 -24,61 -57,111 -99,151 -42,39 -88,67 -137,82 -49,15 -134,23 -255,23 h -213 z m -485,248 -126,322 h 252 z m -90,-248 h 180 l 359,934 h -185 l -73,-193 h -383 l -74,193 h -185 z m -760,525 v 240 h 45 c 75,0 125,-9 151,-28 26,-19 39,-46 39,-81 0,-41 -15,-72 -46,-96 -30,-23 -81,-35 -152,-35 z m 0,-356 v 198 h 39 c 45,0 78,-9 99,-28 22,-18 32,-43 32,-74 0,-30 -10,-53 -30,-70 -21,-17 -52,-26 -93,-26 z m -177,765 v -934 h 147 c 86,0 148,5 188,16 56,15 101,43 134,83 33,40 50,88 50,142 0,36 -8,68 -23,97 -15,29 -39,57 -73,82 57,27 98,60 124,100 27,40 40,87 40,142 0,52 -14,100 -41,143 -28,43 -63,76 -106,97 -43,21 -102,32 -177,32 z m -784,-686 h 375 v 128 h -245 v 123 h 245 v 126 h -245 v 181 h 245 v 128 h -375 z m -463,126 v 433 h 61 c 60,0 103,-7 130,-21 27,-13 49,-37 66,-69 17,-32 25,-72 25,-120 0,-72 -20,-129 -61,-169 -36,-36 -95,-54 -176,-54 z m -130,-126 h 155 c 100,0 174,12 223,37 48,24 88,65 119,120 32,56 47,121 47,195 0,53 -8,102 -26,146 -17,44 -42,81 -73,111 -31,29 -64,49 -100,60 -36,11 -99,17 -187,17 h -158 z"
       id="path13-3"
       inkscape:connector-curvature="0"
       style="fill:#000000" /><path
       class="fil1"
       d="m 52.547889,1841.8471 c 978.000011,-712 2292.000011,-859.99998 3393.000011,-340 257,121 -45,520 -259,403 -749,-409 -2127,-453 -3082.00001,13 -95.000001,47 -152.000001,-2 -52.000001,-76 z m 329.000001,411 c 774.00001,-498 1836.00001,-585 2683.00001,-161 182,91 -42,387 -219,299 -692,-344 -1722,-396 -2442.00001,-72 -95,42 -124,0 -22,-66 z m 290,451 c 581.00001,-400 1407.00001,-481 2057.00001,-159 182,90 -14,296 -144,230 -535,-269 -1350,-301 -1895.00001,-33 -45,22 -70,-2 -18,-38 z m 2339.00001,-1606 c -171,0 -309,-137.99998 -309,-307.99998 0,-170 138,-308 309,-308 170,0 308,138 308,308 0,170 -138,307.99998 -308,307.99998 z m -2477.00001,-1 c 171,0 309,-137.99998 309,-307.99998 0,-170 -138,-308 -309,-308 -170,0 -308,138 -308,308 0,170 138,307.99998 308,307.99998 z M 1771.5479,846.84712 c 234,0 424,-190 424,-424 0,-233 -190,-422.99999715 -424,-422.99999715 -233,0 -423,189.99999715 -423,422.99999715 0,234 190,424 423,424 z"
       id="path15-6"
       inkscape:connector-curvature="0"
       style="fill:#c32b21;fill-opacity:1;fill-rule:nonzero" /></g></svg>