<?xml version="1.0" encoding="UTF-8"?>
<svg width="119px" height="38px" viewBox="0 0 119 38" version="1.1" xmlns="http://www.w3.org/2000/svg" xmlns:xlink="http://www.w3.org/1999/xlink">
    <title>Group 2 Copy</title>
    <g id="Symbols" stroke="none" stroke-width="1" fill="none" fill-rule="evenodd">
        <g id="nav/colapsado/reducido" transform="translate(-60.000000, -19.000000)">
            <g id="Group-2-Copy" transform="translate(60.000000, 19.000000)">
                <path d="M68.8222222,38 C70.0764182,38 71.1640413,37.5423713 72.0850914,36.6271139 C73.0061416,35.7118565 73.4666667,34.6310738 73.4666667,33.3847659 C73.4666667,32.7616119 73.3392874,32.1676683 73.0845288,31.602935 C72.8297703,31.0382017 72.4966245,30.5416259 72.0850914,30.1132075 C71.6735584,29.6847892 71.1836381,29.3440019 70.6153305,29.0908456 C70.047023,28.8376893 69.4493202,28.7111111 68.8222222,28.7111111 C68.1951242,28.7111111 67.5974215,28.8376893 67.0291139,29.0908456 C66.4608064,29.3440019 65.9708861,29.6847892 65.559353,30.1132075 C65.14782,30.5416259 64.8146742,31.0382017 64.5599156,31.602935 C64.3051571,32.1676683 64.1777778,32.7616119 64.1777778,33.3847659 C64.1777778,34.6310738 64.6383029,35.7118565 65.559353,36.6271139 C66.4804032,37.5423713 67.5680263,38 68.8222222,38 Z" id="Combined-Shape" fill="#D0103A"></path>
                <path d="M5.26168776,37.4351351 L5.26168776,22.0297297 C5.26168776,19.736036 5.72144689,18.0072072 6.64096514,16.8432432 C7.56048338,15.6792793 8.85462018,15.0972973 10.5233755,15.0972973 C11.4088375,15.0972973 12.1580746,15.1828829 12.7710868,15.3540541 C13.384099,15.5252252 13.980083,15.7648649 14.559039,16.072973 L14.559039,16.072973 L15.9383163,11.0405405 C15.3934166,10.663964 14.7718904,10.3815315 14.0737377,10.1932432 C13.3755849,10.004955 12.4816088,9.91081081 11.3918094,9.91081081 C10.0636164,9.91081081 8.86313424,10.2103604 7.79036295,10.8094595 C6.71759166,11.4085586 5.87469993,12.1531532 5.26168776,13.0432432 L5.26168776,13.0432432 L5.26168776,10.4756757 L0,10.4756757 L0,37.4351351 L5.26168776,37.4351351 Z M26.6453781,38 C28.688752,38 30.4426479,37.6918919 31.9070659,37.0756757 C33.3714838,36.4594595 34.6996769,35.5864865 35.891645,34.4567568 L35.891645,34.4567568 L32.7754998,31.0675676 C31.8900378,31.7522523 30.9790336,32.2828829 30.0424872,32.6594595 C29.1059408,33.036036 28.0757398,33.2243243 26.9518842,33.2243243 C26.1345346,33.2243243 25.3512413,33.0788288 24.6020042,32.7878378 C23.8527671,32.4968468 23.1716425,32.0518018 22.5586303,31.4527027 C21.9456182,30.8536036 21.4347747,30.0918919 21.0260999,29.1675676 C20.6174251,28.2432432 20.3449753,27.1306306 20.2087504,25.8297297 L20.2087504,25.8297297 L37.9350188,25.8297297 C37.9690751,25.5558559 38.0031313,25.204955 38.0371875,24.777027 C38.0712438,24.3490991 38.0882719,23.8954955 38.0882719,23.4162162 C38.0882719,21.6018018 37.8583923,19.872973 37.3986332,18.2297297 C36.9388741,16.5864865 36.2407213,15.1486486 35.304175,13.9162162 C34.3676286,12.6837838 33.1926886,11.7081081 31.779355,10.9891892 C30.3660214,10.2702703 28.7057801,9.91081081 26.7986312,9.91081081 C25.0617634,9.91081081 23.4696345,10.2189189 22.0222447,10.8351351 C20.5748549,11.4513514 19.3403165,12.35 18.3186295,13.5310811 C17.2969426,14.7121622 16.4966211,16.1756757 15.9176652,17.9216216 C15.3387093,19.6675676 15.0492313,21.6873874 15.0492313,23.9810811 C15.0492313,26.2063063 15.3557374,28.1918919 15.9687496,29.9378378 C16.5817617,31.6837838 17.4161394,33.1558559 18.4718826,34.3540541 C19.5276257,35.5522523 20.7621641,36.4594595 22.1754977,37.0756757 C23.5888313,37.6918919 25.0787915,38 26.6453781,38 Z M32.7754998,21.4648649 L20.3109191,21.4648649 C20.5493127,19.3081081 21.187867,17.6391892 22.2265821,16.4581081 C23.2652971,15.277027 24.6701167,14.6864865 26.4410407,14.6864865 C27.5308401,14.6864865 28.4588724,14.8662162 29.2251377,15.2256757 C29.9914029,15.5851351 30.6299572,16.072973 31.1408007,16.6891892 C31.6516441,17.3054054 32.0347767,18.0243243 32.2901985,18.8459459 C32.5456202,19.6675676 32.7073873,20.5405405 32.7754998,21.4648649 L32.7754998,21.4648649 Z M50.021358,38 C51.4517197,38 52.7288284,37.7004505 53.8526841,37.1013514 C54.9765397,36.5022523 56.0322829,35.7576577 57.0199136,34.8675676 L57.0199136,34.8675676 L57.0199136,37.4351351 L62.230517,37.4351351 L62.230517,0 L57.0199136,2.72162162 L57.0199136,12.9918919 C56.2706765,12.1702703 55.3000739,11.4513514 54.1081058,10.8351351 C52.9161377,10.2189189 51.639029,9.91081081 50.2767797,9.91081081 C48.8804743,9.91081081 47.5437672,10.1846847 46.2666585,10.7324324 C44.9895498,11.2801802 43.8656942,12.1189189 42.8950916,13.2486486 C41.924489,14.3783784 41.1497097,15.7990991 40.5707538,17.5108108 C39.9917978,19.2225225 39.7023199,21.2252252 39.7023199,23.5189189 C39.7023199,26.0864865 39.9662557,28.286036 40.4941273,30.1175676 C41.0219988,31.9490991 41.7542078,33.4468468 42.6907542,34.6108108 C43.6273006,35.7747748 44.725614,36.6306306 45.9856946,37.1783784 C47.2457751,37.7261261 48.5909963,38 50.021358,38 Z M50.9919606,33.1216216 C49.0507554,33.1216216 47.5607953,32.3513514 46.5220802,30.8108108 C45.4833652,29.2702703 44.9640076,26.7882883 44.9640076,23.3648649 C44.9640076,20.4891892 45.457823,18.340991 46.4454537,16.9202703 C47.4330844,15.4995495 48.8804743,14.7891892 50.7876232,14.7891892 C51.4346916,14.7891892 52.073246,14.9004505 52.7032862,15.122973 C53.3333265,15.3454955 53.9207965,15.6279279 54.4656962,15.9702703 C55.0105959,16.3126126 55.5044113,16.6891892 55.9471423,17.1 C56.3898733,17.5108108 56.7644918,17.9216216 57.0709979,18.3324324 L57.0709979,18.3324324 L57.0709979,29.6810811 C56.3898733,30.5711712 55.5214394,31.3671171 54.4656962,32.0689189 C53.409953,32.7707207 52.2520412,33.1216216 50.9919606,33.1216216 Z M85.7532285,38 C87.7966024,38 89.5504983,37.6918919 91.0149163,37.0756757 C92.4793342,36.4594595 93.8075273,35.5864865 94.9994954,34.4567568 L94.9994954,34.4567568 L91.8833502,31.0675676 C90.9978882,31.7522523 90.086884,32.2828829 89.1503376,32.6594595 C88.2137912,33.036036 87.1835902,33.2243243 86.0597346,33.2243243 C85.2423851,33.2243243 84.4590917,33.0788288 83.7098546,32.7878378 C82.9606175,32.4968468 82.2794929,32.0518018 81.6664807,31.4527027 C81.0534686,30.8536036 80.5426251,30.0918919 80.1339503,29.1675676 C79.7252756,28.2432432 79.4528257,27.1306306 79.3166008,25.8297297 L79.3166008,25.8297297 L97.0428693,25.8297297 C97.0769255,25.5558559 97.1109817,25.204955 97.1450379,24.777027 C97.1790942,24.3490991 97.1961223,23.8954955 97.1961223,23.4162162 C97.1961223,21.6018018 96.9662427,19.872973 96.5064836,18.2297297 C96.0467245,16.5864865 95.3485717,15.1486486 94.4120254,13.9162162 C93.475479,12.6837838 92.300539,11.7081081 90.8872054,10.9891892 C89.4738718,10.2702703 87.8136305,9.91081081 85.9064816,9.91081081 C84.1696138,9.91081081 82.5774849,10.2189189 81.1300951,10.8351351 C79.6827053,11.4513514 78.4481669,12.35 77.4264799,13.5310811 C76.404793,14.7121622 75.6044715,16.1756757 75.0255156,17.9216216 C74.4465597,19.6675676 74.1570817,21.6873874 74.1570817,23.9810811 C74.1570817,26.2063063 74.4635878,28.1918919 75.0766,29.9378378 C75.6896121,31.6837838 76.5239898,33.1558559 77.579733,34.3540541 C78.6354761,35.5522523 79.8700145,36.4594595 81.2833481,37.0756757 C82.6966818,37.6918919 84.1866419,38 85.7532285,38 Z M91.8833502,21.4648649 L79.4187695,21.4648649 C79.6571631,19.3081081 80.2957174,17.6391892 81.3344325,16.4581081 C82.3731476,15.277027 83.7779671,14.6864865 85.5488911,14.6864865 C86.6386905,14.6864865 87.5667229,14.8662162 88.3329881,15.2256757 C89.0992533,15.5851351 89.7378076,16.072973 90.2486511,16.6891892 C90.7594946,17.3054054 91.1426272,18.0243243 91.3980489,18.8459459 C91.6534706,19.6675676 91.8152377,20.5405405 91.8833502,21.4648649 L91.8833502,21.4648649 Z M108.158606,38 C109.486799,38 110.755393,37.8630631 111.96439,37.5891892 C113.173386,37.3153153 114.237643,36.8702703 115.157161,36.2540541 C116.07668,35.6378378 116.817403,34.8247748 117.37933,33.8148649 C117.941258,32.804955 118.222222,31.5468468 118.222222,30.0405405 C118.222222,28.7738739 118.034913,27.6954955 117.660294,26.8054054 C117.285676,25.9153153 116.715234,25.1364865 115.948969,24.4689189 C115.182704,23.8013514 114.237643,23.2022523 113.113788,22.6716216 C111.989932,22.140991 110.678767,21.5846847 109.180293,21.0027027 C108.158606,20.5918919 107.332742,20.2238739 106.702702,19.8986486 C106.072662,19.5734234 105.570332,19.2567568 105.195714,18.9486486 C104.821095,18.6405405 104.565673,18.340991 104.429448,18.05 C104.293224,17.759009 104.225111,17.4423423 104.225111,17.1 C104.225111,16.3810811 104.514589,15.7905405 105.093545,15.3283784 C105.672501,14.8662162 106.609047,14.6351351 107.903184,14.6351351 C109.197321,14.6351351 110.406317,14.8234234 111.530173,15.2 C112.654028,15.5765766 113.760856,16.1585586 114.850655,16.9459459 L114.850655,16.9459459 L117.149451,12.8891892 C115.957483,11.9990991 114.569691,11.2801802 112.986077,10.7324324 C111.402462,10.1846847 109.759249,9.91081081 108.056437,9.91081081 C106.728244,9.91081081 105.50222,10.0648649 104.378364,10.372973 C103.254508,10.6810811 102.283906,11.1432432 101.466556,11.7594595 C100.649207,12.3756757 100.019167,13.1459459 99.5764355,14.0702703 C99.1337045,14.9945946 98.912339,16.0558559 98.912339,17.2540541 C98.912339,18.3153153 99.0485639,19.2481982 99.3210138,20.0527027 C99.5934636,20.8572072 100.044709,21.5846847 100.674749,22.2351351 C101.304789,22.8855856 102.122139,23.4932432 103.126798,24.0581081 C104.131456,24.622973 105.348967,25.1792793 106.779328,25.727027 C108.720534,26.4801802 110.24455,27.1648649 111.351378,27.7810811 C112.458205,28.3972973 113.011619,29.2189189 113.011619,30.2459459 C113.011619,32.2315315 111.37692,33.2243243 108.107521,33.2243243 C106.847441,33.2243243 105.54479,33.0018018 104.199569,32.5567568 C102.854348,32.1117117 101.551697,31.4441441 100.291616,30.5540541 L100.291616,30.5540541 L97.890652,34.5594595 C99.2529013,35.5522523 100.84503,36.3738739 102.667039,37.0243243 C104.489047,37.6747748 106.319569,38 108.158606,38 Z" id="red.es" fill="#000000" fill-rule="nonzero"></path>
            </g>
        </g>
    </g>
</svg>